<svg width="439" height="183" xmlns="http://www.w3.org/2000/svg" xmlns:xlink="http://www.w3.org/1999/xlink" overflow="hidden"><defs><clipPath id="clip0"><rect x="0" y="0" width="439" height="183"/></clipPath></defs><g clip-path="url(#clip0)"><path d="M262.405 273.449C289.069 246.787 293.5 207.992 272.303 186.796 251.108 165.603 212.315 170.034 185.653 196.694 158.992 223.355 166.704 274.291 175.758 283.346 183.074 290.662 235.745 300.109 262.405 273.449Z" fill="#F89939" transform="matrix(1 0 0 1.00097 -88.6928 -141.303)"/><path d="M153.002 234.923C137.534 219.455 115.023 216.88 102.722 229.18 90.4248 241.479 92.9959 263.992 108.467 279.458 123.938 294.93 153.494 290.455 158.743 285.201 162.991 280.96 168.474 250.393 153.002 234.923Z" fill="#3499CD" transform="matrix(1 0 0 1.00097 -88.6928 -141.303)"/><path d="M206.371 266.914C203.639 269.429 201.242 271.285 199.181 272.478 197.121 273.675 195.156 274.272 193.287 274.272 191.136 274.272 189.401 273.439 188.085 271.77 186.767 270.101 186.111 267.862 186.111 265.045 186.111 260.824 187.026 255.758 188.855 249.85 190.682 243.938 192.905 238.49 195.518 233.506L203.177 230.671C203.417 230.59 203.599 230.549 203.721 230.549 204.302 230.549 204.782 230.978 205.15 231.83 205.523 232.687 205.71 233.838 205.71 235.285 205.71 239.385 204.766 243.355 202.874 247.195 200.983 251.036 198.03 255.135 194.01 259.497 193.849 261.588 193.768 263.024 193.768 263.809 193.768 265.559 194.09 266.944 194.733 267.97 195.377 268.997 196.23 269.507 197.296 269.507 198.383 269.507 199.538 269.118 200.765 268.334 201.989 267.548 203.858 265.922 206.371 263.448L206.371 266.914ZM194.824 255.126C197.376 252.288 199.449 249.105 201.036 245.584 202.623 242.061 203.416 239.031 203.416 236.492 203.416 235.752 203.307 235.151 203.087 234.699 202.866 234.246 202.582 234.019 202.241 234.019 201.501 234.019 200.418 235.87 199 239.574 197.583 243.278 196.191 248.462 194.824 255.126Z" fill="#010101" transform="matrix(1 0 0 1.00097 -88.6928 -141.303)"/><path d="M228.928 266.914C226.375 269.429 224.084 271.285 222.053 272.478 220.022 273.675 217.783 274.272 215.329 274.272 212.595 274.272 210.389 273.398 208.709 271.651 207.031 269.899 206.193 267.6 206.193 264.744 206.193 260.484 207.67 256.628 210.628 253.181 213.58 249.732 216.858 248.009 220.456 248.009 222.326 248.009 223.821 248.493 224.949 249.457 226.075 250.423 226.637 251.688 226.637 253.257 226.637 257.419 222.215 260.794 213.371 263.388 214.174 267.306 216.274 269.268 219.672 269.268 220.999 269.268 222.264 268.911 223.47 268.199 224.678 267.485 226.496 265.899 228.928 263.448L228.928 266.914ZM213.128 261.337C218.272 259.888 220.846 257.216 220.846 253.316 220.846 251.387 220.142 250.423 218.737 250.423 217.409 250.423 216.144 251.431 214.939 253.453 213.73 255.473 213.128 258.099 213.128 261.337Z" fill="#010101" transform="matrix(1 0 0 1.00097 -88.6928 -141.303)"/><path d="M261.131 266.914C257.914 269.969 255.612 271.962 254.227 272.887 252.839 273.812 251.513 274.273 250.245 274.273 247.069 274.273 245.572 271.47 245.753 265.861 243.743 268.734 241.887 270.855 240.188 272.225 238.491 273.591 236.738 274.273 234.926 274.273 233.16 274.273 231.658 273.446 230.419 271.787 229.181 270.128 228.566 268.094 228.566 265.679 228.566 262.666 229.394 259.791 231.051 257.055 232.711 254.321 234.837 252.112 237.429 250.423 240.021 248.735 242.315 247.889 244.303 247.889 246.817 247.889 248.576 249.046 249.582 251.356L255.744 247.951 257.435 247.951 254.774 256.784C253.407 261.228 252.721 264.274 252.721 265.922 252.721 267.65 253.333 268.514 254.56 268.514 255.341 268.514 256.206 268.098 257.151 267.263 258.097 266.427 259.421 265.156 261.129 263.448L261.129 266.914ZM239.059 268.574C241.068 268.574 242.963 266.861 244.745 263.434 246.524 260.006 247.413 256.843 247.413 253.949 247.413 252.824 247.159 251.944 246.66 251.311 246.155 250.676 245.482 250.361 244.639 250.361 242.628 250.361 240.721 252.069 238.926 255.488 237.127 258.906 236.225 262.052 236.225 264.924 236.225 266.011 236.493 266.89 237.025 267.564 237.557 268.238 238.233 268.574 239.059 268.574Z" fill="#010101" transform="matrix(1 0 0 1.00097 -88.6928 -141.303)"/><path d="M283.656 266.914C278.61 271.859 274.719 274.333 271.986 274.333 270.759 274.333 269.723 273.815 268.88 272.783 268.038 271.747 267.614 270.464 267.614 268.935 267.614 266.101 269.133 262.304 272.168 257.538 270.679 258.303 269.053 258.833 267.283 259.136 265.976 261.548 263.925 264.142 261.131 266.913L260.439 266.913 260.439 264.203C262.006 262.575 263.424 260.824 264.691 258.955 262.959 258.19 262.097 257.054 262.097 255.549 262.097 253.999 262.623 252.347 263.681 250.586 264.736 248.828 266.187 247.95 268.038 247.95 269.606 247.95 270.389 248.751 270.389 250.36 270.389 251.627 269.937 253.435 269.031 255.788 272.367 255.426 275.282 252.875 277.776 248.129L280.519 248.008 277.715 255.727C276.55 258.984 275.796 261.202 275.455 262.377 275.114 263.551 274.941 264.594 274.941 265.497 274.941 266.342 275.138 267.018 275.529 267.517 275.921 268.023 276.45 268.272 277.113 268.272 277.835 268.272 278.53 268.025 279.193 267.535 279.856 267.038 281.344 265.678 283.657 263.447L283.657 266.914Z" fill="#010101" transform="matrix(1 0 0 1.00097 -88.6928 -141.303)"/><path d="M313.268 266.914C308.625 271.822 304.642 274.273 301.327 274.273 299.98 274.273 298.894 273.801 298.07 272.855 297.244 271.911 296.832 270.645 296.832 269.057 296.832 266.907 297.718 263.619 299.488 259.199 300.432 256.826 300.906 255.316 300.906 254.675 300.906 254.031 300.652 253.709 300.152 253.709 299.871 253.709 299.497 253.851 299.036 254.13 298.612 254.412 298.12 254.807 297.557 255.308 297.055 255.77 296.491 256.332 295.868 256.994 295.324 257.561 294.741 258.204 294.121 258.925L292.43 260.887C291.688 261.79 291.225 262.744 291.045 263.75 290.741 265.458 290.541 267.028 290.44 268.457 290.379 269.52 290.349 270.956 290.349 272.769L283.685 274.334C283.466 271.62 283.353 269.599 283.353 268.274 283.353 265.038 283.73 261.971 284.485 259.078 285.239 256.18 286.449 252.926 288.118 249.306L295.474 247.89C293.927 252.052 292.913 255.327 292.43 257.718 295.727 254.04 298.341 251.494 300.278 250.075 302.212 248.657 303.935 247.951 305.44 247.951 306.463 247.951 307.318 248.337 307.999 249.109 308.683 249.883 309.023 250.853 309.023 252.014 309.023 253.942 308.158 257.118 306.432 261.542 305.245 264.576 304.651 266.545 304.651 267.455 304.651 268.665 305.145 269.269 306.132 269.269 307.602 269.269 309.983 267.329 313.268 263.449L313.268 266.914Z" fill="#010101" transform="matrix(1 0 0 1.00097 -88.6928 -141.303)"/><text fill="#FFFFFF" font-family="Arial,Arial_MSFontService,sans-serif" font-weight="400" font-size="23" transform="matrix(0.787247 0 0 0.788014 126.967 97)">scikit<tspan fill="#010101" font-family="Verdana,Verdana_MSFontService,sans-serif" x="71.627" y="73.6028">machine learning in Python</tspan></text></g></svg>